# File created by Blade
# Date/Time:  Tue Sep 30 19:28:49 2014
#---------------------------------------------------------
:version 1.10
:name HOM
:units
  mass 1.0
  length 1.000000
  angle deg
:documentation
     Acclaim Skeleton File
:root
   axis xyz
   order TX TY TZ RX RY RZ
   position 0.000000 0.000000 0.000000
   orientation 0 0 0
:bonedata
   begin
      id 1
      name RightUpLeg_dum
      direction -1.000000 0.000000 0.000000
      length 3.766986
      axis 0.0 0.0 0.0 xyz
   end
   begin
      id 2
      name LeftUpLeg_dum
      direction 1.000000 0.000000 0.000000
      length 3.766986
      axis 0.0 0.0 0.0 xyz
   end
   begin
      id 3
      name Spine_dum
      direction 0.000000 1.000000 0.000000
      length 7.779697
      axis 0.0 0.0 0.0 xyz
   end
   begin
      id 4
      name RightUpLeg
      direction 0.000000 -1.000000 0.000000
      length 18.017682
      axis 0.0 0.0 0.0 xyz
      dof rx ry rz
   end
   begin
      id 5
      name RightLeg
      direction 0.000000 -1.000000 0.000000
      length 16.881075
      axis 0.0 0.0 0.0 xyz
      dof rx ry rz
   end
   begin
      id 6
      name RightFoot
      direction 0.000000 -0.258819 0.965926
      length 5.770812
      axis 15.0 0.0 0.0 xyz
      dof rx ry rz
   end
   begin
      id 7
      name RightToeBase
      direction 0.000000 0.000000 1.000000
      length 2.952750
      axis 0.0 0.0 0.0 xyz
      dof rx ry rz
   end
   begin
      id 8
      name LeftUpLeg
      direction 0.000000 -1.000000 0.000000
      length 18.017682
      axis 0.0 0.0 0.0 xyz
      dof rx ry rz
   end
   begin
      id 9
      name LeftLeg
      direction 0.000000 -1.000000 0.000000
      length 16.881075
      axis 0.0 0.0 0.0 xyz
      dof rx ry rz
   end
   begin
      id 10
      name LeftFoot
      direction 0.000000 -0.258819 0.965926
      length 5.770812
      axis 15.0 0.0 0.0 xyz
      dof rx ry rz
   end
   begin
      id 11
      name LeftToeBase
      direction 0.000000 0.000000 1.000000
      length 2.952750
      axis 0.0 0.0 0.0 xyz
      dof rx ry rz
   end
   begin
      id 12
      name Spine
      direction 0.000000 1.000000 0.000000
      length 0.000000
      axis 0.0 0.0 0.0 xyz
      dof rx ry rz
   end
   begin
      id 13
      name Spine_dum1
      direction 0.000000 1.000000 0.000000
      length 10.941760
      axis 0.0 0.0 0.0 xyz
   end
   begin
      id 14
      name Spine_dum2
      direction 0.000000 1.000000 0.000000
      length 10.941760
      axis 0.0 0.0 0.0 xyz
   end
   begin
      id 15
      name Spine_dum3
      direction 0.000000 1.000000 0.000000
      length 16.646042
      axis 0.0 0.0 0.0 xyz
   end
   begin
      id 16
      name RightShoulder
      direction -1.000000 0.000000 0.000000
      length 7.708937
      axis 0.0 0.0 90.0 xyz
      dof rx ry rz
   end
   begin
      id 17
      name RightArm
      direction -1.000000 0.000000 0.000000
      length 11.521345
      axis 0.0 0.0 90.0 xyz
      dof rx ry rz
   end
   begin
      id 18
      name RightForeArm
      direction -1.000000 0.000000 0.000000
      length 10.175898
      axis 0.0 0.0 90.0 xyz
      dof ry rz rx
   end
   begin
      id 19
      name RightHand
      direction -1.000000 0.000000 0.000000
      length 0.000000
      axis 0.0 0.0 90.0 xyz
      dof rx ry rz
   end
   begin
      id 20
      name RightHand_dum1
      direction -1.000000 0.000000 0.000000
      length 3.937000
      axis 0.0 0.0 90.0 xyz
   end
   begin
      id 21
      name RightHand_dum2
      direction 0.000000 0.000000 0.000000
      length 0.000000
      axis 0.0 0.0 90.0 xyz
   end
   begin
      id 22
      name RightHandThumb1
      direction 0.000000 0.000000 1.000000
      length 3.937000
      axis 0.0 0.0 90.0 xyz
      dof rx rz ry
   end
   begin
      id 23
      name LeftShoulder
      direction 1.000000 0.000000 0.000000
      length 7.708937
      axis 0.0 0.0 -90.0 xyz
      dof rx ry rz
   end
   begin
      id 24
      name LeftArm
      direction 1.000000 0.000000 0.000000
      length 11.521345
      axis 0.0 0.0 -90.0 xyz
      dof rx ry rz
   end
   begin
      id 25
      name LeftForeArm
      direction 1.000000 0.000000 0.000000
      length 10.175898
      axis 0.0 0.0 -90.0 xyz
      dof ry rz rx
   end
   begin
      id 26
      name LeftHand
      direction 1.000000 0.000000 0.000000
      length 0.000000
      axis 0.0 0.0 -90.0 xyz
      dof rx ry rz
   end
   begin
      id 27
      name LeftHand_dum1
      direction 1.000000 0.000000 0.000000
      length 3.937000
      axis 0.0 0.0 -90.0 xyz
   end
   begin
      id 28
      name LeftHand_dum2
      direction 0.000000 0.000000 0.000000
      length 0.000000
      axis 0.0 0.0 -90.0 xyz
   end
   begin
      id 29
      name LeftHandThumb1
      direction 0.000000 0.000000 1.000000
      length 3.937000
      axis 0.0 0.0 -90.0 xyz
      dof rx rz ry
   end
   begin
      id 30
      name Head
      direction 0.000000 1.000000 0.000000
      length 4.527550
      axis 0.0 0.0 0.0 xyz
      dof rx ry rz
   end
:hierarchy
   begin
      root RightUpLeg_dum LeftUpLeg_dum Spine_dum
      RightUpLeg_dum RightUpLeg
      LeftUpLeg_dum LeftUpLeg
      Spine_dum Spine
      RightUpLeg RightLeg
      RightLeg RightFoot
      RightFoot RightToeBase
      LeftUpLeg LeftLeg
      LeftLeg LeftFoot
      LeftFoot LeftToeBase
      Spine Spine_dum1 Spine_dum2 Spine_dum3
      Spine_dum1 RightShoulder
      Spine_dum2 LeftShoulder
      Spine_dum3 Head
      RightShoulder RightArm
      RightArm RightForeArm
      RightForeArm RightHand
      RightHand RightHand_dum1 RightHand_dum2
      RightHand_dum2 RightHandThumb1
      LeftShoulder LeftArm
      LeftArm LeftForeArm
      LeftForeArm LeftHand
      LeftHand LeftHand_dum1 LeftHand_dum2
      LeftHand_dum2 LeftHandThumb1
   end

# File created by Blade
# Date/Time:  Mon Sep 22 15:50:36 2014
# Frame Rate: 120.000 fps
#------------------------------------------------------
:FULLY-SPECIFIED
:DEGREES
290
root 2.440767 36.974695 2.845391 -2.779300 -8.850625 1.529894
RightUpLeg 9.375041 -1.740073 -4.141402
RightLeg -4.908287 -0.000000 0.000000
RightFoot -11.703815 -13.765919 14.909518
RightToeBase 14.835452 -0.000000 -0.000000
LeftUpLeg 10.092786 5.781704 1.183889
LeftLeg -2.768502 -0.000000 0.000000
LeftFoot -11.483311 15.521030 -17.344829
LeftToeBase 9.420969 -0.000000 -0.000000
Spine 2.011393 -9.044401 -2.598978
RightShoulder 4.733450 -26.957000 -8.093016
RightArm 31.285723 -30.259338 58.842654
RightForeArm 14.255826 -0.000000 29.806467
RightHand 2.820062 -0.000000 -1.606503
RightHandThumb1 -24.326973 -0.000000 -32.862282
LeftShoulder -11.998080 28.251233 4.039841
LeftArm 72.747736 -1.573550 -87.085693
LeftForeArm -29.749247 -0.000000 140.171821
LeftHand -6.768461 0.000000 -1.274379
LeftHandThumb1 -26.253704 0.000000 33.147579
Head 5.378190 20.422996 8.540567
291
root 2.442006 36.974647 2.845481 -2.813765 -8.848530 1.532386
RightUpLeg 9.411914 -1.749573 -4.148984
RightLeg -4.911287 -0.000000 0.000000
RightFoot -11.708750 -13.748903 14.911273
RightToeBase 14.884022 -0.000000 -0.000000
LeftUpLeg 10.127078 5.776207 1.182443
LeftLeg -2.770568 -0.000000 0.000000
LeftFoot -11.482770 15.525124 -17.346179
LeftToeBase 9.419049 -0.000000 -0.000000
Spine 2.037797 -9.065996 -2.608011
RightShoulder 4.735658 -26.981431 -8.113818
RightArm 31.331652 -30.242694 58.845843
RightForeArm 14.231888 -0.000000 29.812257
RightHand 2.814129 0.000000 -1.670170
RightHandThumb1 -24.326973 -0.000000 -32.862282
LeftShoulder -11.857546 28.032107 4.266319
LeftArm 73.111209 -1.752632 -87.158400
LeftForeArm -29.602426 -0.000000 140.227878
LeftHand -6.843418 -0.000000 -1.189676
LeftHandThumb1 -26.253704 0.000000 33.147579
Head 5.408821 20.365812 8.567315
292
root 2.443773 36.974698 2.844136 -2.839874 -8.842745 1.521789
RightUpLeg 9.438540 -1.757240 -4.141345
RightLeg -4.915144 -0.000000 0.000000
RightFoot -11.700786 -13.747234 14.920631
RightToeBase 14.890452 -0.000000 -0.000000
LeftUpLeg 10.149730 5.762688 1.190373
LeftLeg -2.767493 -0.000000 0.000000
LeftFoot -11.492766 15.542796 -17.331260
LeftToeBase 9.421615 -0.000000 -0.000000
Spine 2.082706 -9.094427 -2.565854
RightShoulder 4.703885 -26.950087 -8.165774
RightArm 31.379006 -30.261482 58.876806
RightForeArm 14.227745 -0.000000 29.797289
RightHand 2.833281 -0.000000 -1.681914
RightHandThumb1 -24.326973 -0.000000 -32.862282
LeftShoulder -11.720118 27.728613 4.435968
LeftArm 73.477431 -2.022479 -87.322553
LeftForeArm -29.720609 -0.000000 140.286724
LeftHand -6.613855 -0.000000 -1.135517
LeftHandThumb1 -26.253704 0.000000 33.147579
Head 5.459259 20.710309 8.684912
293
root 2.447856 36.975726 2.840871 -2.843797 -8.841496 1.528271
RightUpLeg 9.439961 -1.675605 -4.141890
RightLeg -4.923708 -0.000000 0.000000
RightFoot -11.706092 -13.837942 14.940002
RightToeBase 14.892471 -0.000000 -0.000000
LeftUpLeg 10.144144 5.753892 1.175202
LeftLeg -2.762724 -0.000000 0.000000
LeftFoot -11.484342 15.560419 -17.325272
LeftToeBase 9.343150 -0.000000 -0.000000
Spine 2.082163 -9.130736 -2.559862
RightShoulder 4.718143 -26.942215 -8.200424
RightArm 31.422625 -30.282198 58.866846
RightForeArm 14.269631 -0.000000 29.795617
RightHand 2.856240 0.000000 -1.697303
RightHandThumb1 -24.326973 -0.000000 -32.862282
LeftShoulder -11.600846 27.524538 4.621144
LeftArm 73.990494 -2.307529 -87.509896
LeftForeArm -29.581130 0.000000 140.364177
LeftHand -6.770301 0.000000 -1.167546
LeftHandThumb1 -26.253704 0.000000 33.147579
Head 5.496391 20.756317 8.722351
294
root 2.449078 36.976256 2.838977 -2.855678 -8.824036 1.534368
RightUpLeg 9.449871 -1.665763 -4.149243
RightLeg -4.920309 -0.000000 0.000000
RightFoot -11.717354 -13.853004 14.954175
RightToeBase 14.924472 -0.000000 -0.000000
LeftUpLeg 10.147841 5.737043 1.168016
LeftLeg -2.760160 -0.000000 0.000000
LeftFoot -11.479158 15.556101 -17.329596
LeftToeBase 9.428745 -0.000000 -0.000000
Spine 2.084184 -9.201405 -2.565315
RightShoulder 4.751681 -26.950834 -8.249598
RightArm 31.488970 -30.304017 58.865928
RightForeArm 14.271735 0.000000 29.789314
RightHand 2.833865 0.000000 -1.720427
RightHandThumb1 -24.326973 -0.000000 -32.862282
LeftShoulder -11.423958 27.196723 4.899291
LeftArm 74.386489 -2.645585 -87.790544
LeftForeArm -29.707780 -0.000000 140.464479
LeftHand -6.869822 -0.000000 -1.260189
LeftHandThumb1 -26.253704 0.000000 33.147579
Head 5.541498 20.743942 8.716141
